<mxfile host="65bd71144e">
    <diagram id="KK9WDqGBmbonU3hhmTZ_" name="Page-1">
        <mxGraphModel dx="863" dy="503" grid="1" gridSize="10" guides="1" tooltips="1" connect="1" arrows="1" fold="1" page="1" pageScale="1" pageWidth="850" pageHeight="1100" math="0" shadow="0">
            <root>
                <mxCell id="0"/>
                <mxCell id="1" parent="0"/>
                <mxCell id="qSQvHdq0zDIWcUtbztMG-1" value="&lt;font style=&quot;font-size: 23px;&quot;&gt;Store&lt;/font&gt;" style="ellipse;whiteSpace=wrap;html=1;aspect=fixed;fillColor=#f8cecc;strokeColor=#b85450;" parent="1" vertex="1">
                    <mxGeometry x="570" y="100" width="110" height="110" as="geometry"/>
                </mxCell>
                <mxCell id="qSQvHdq0zDIWcUtbztMG-2" value="Members&lt;br&gt;List" style="rounded=1;whiteSpace=wrap;html=1;fontSize=23;fillColor=#ffe6cc;strokeColor=#d79b00;" parent="1" vertex="1">
                    <mxGeometry x="100" y="230" width="150" height="170" as="geometry"/>
                </mxCell>
                <mxCell id="qSQvHdq0zDIWcUtbztMG-3" value="Messages" style="rounded=1;whiteSpace=wrap;html=1;fontSize=23;fillColor=#ffe6cc;strokeColor=#d79b00;" parent="1" vertex="1">
                    <mxGeometry x="290" y="230" width="380" height="170" as="geometry"/>
                </mxCell>
                <mxCell id="qSQvHdq0zDIWcUtbztMG-4" value="Sender" style="rounded=1;whiteSpace=wrap;html=1;fontSize=23;fillColor=#d5e8d4;strokeColor=#82b366;" parent="1" vertex="1">
                    <mxGeometry x="290" y="370" width="380" height="30" as="geometry"/>
                </mxCell>
                <mxCell id="qSQvHdq0zDIWcUtbztMG-5" value="" style="ellipse;whiteSpace=wrap;html=1;aspect=fixed;fontSize=23;fillColor=#f5f5f5;fontColor=#333333;strokeColor=#666666;" parent="1" vertex="1">
                    <mxGeometry x="300" y="375" width="20" height="20" as="geometry"/>
                </mxCell>
                <mxCell id="qSQvHdq0zDIWcUtbztMG-7" value="" style="rounded=1;whiteSpace=wrap;html=1;fontSize=23;fillColor=#0050ef;fontColor=#ffffff;strokeColor=#001DBC;" parent="1" vertex="1">
                    <mxGeometry x="600" y="370" width="70" height="30" as="geometry"/>
                </mxCell>
                <mxCell id="qSQvHdq0zDIWcUtbztMG-8" value="&lt;div style=&quot;color: rgb(212, 212, 212); background-color: rgb(30, 30, 30); font-family: Consolas, &amp;quot;Courier New&amp;quot;, monospace; font-weight: normal; font-size: 14px; line-height: 19px;&quot;&gt;&lt;div&gt;&lt;span style=&quot;color: #d4d4d4;&quot;&gt;&amp;nbsp; &lt;/span&gt;&lt;span style=&quot;color: #569cd6;&quot;&gt;type&lt;/span&gt;&lt;span style=&quot;color: #d4d4d4;&quot;&gt; &lt;/span&gt;&lt;span style=&quot;color: #4ec9b0;&quot;&gt;TMember&lt;/span&gt;&lt;span style=&quot;color: #d4d4d4;&quot;&gt; = {&lt;/span&gt;&lt;/div&gt;&lt;div&gt;&lt;span style=&quot;color: #d4d4d4;&quot;&gt;&amp;nbsp; &amp;nbsp; &lt;/span&gt;&lt;span style=&quot;color: #9cdcfe;&quot;&gt;id&lt;/span&gt;&lt;span style=&quot;color: #d4d4d4;&quot;&gt;: &lt;/span&gt;&lt;span style=&quot;color: #4ec9b0;&quot;&gt;string&lt;/span&gt;&lt;span style=&quot;color: #d4d4d4;&quot;&gt;;&lt;/span&gt;&lt;/div&gt;&lt;div&gt;&lt;span style=&quot;color: #d4d4d4;&quot;&gt;&amp;nbsp; &amp;nbsp; &lt;/span&gt;&lt;span style=&quot;color: #9cdcfe;&quot;&gt;username&lt;/span&gt;&lt;span style=&quot;color: #d4d4d4;&quot;&gt;: &lt;/span&gt;&lt;span style=&quot;color: #4ec9b0;&quot;&gt;string&lt;/span&gt;&lt;span style=&quot;color: #d4d4d4;&quot;&gt;;&lt;/span&gt;&lt;/div&gt;&lt;div&gt;&lt;span style=&quot;color: #d4d4d4;&quot;&gt;&amp;nbsp; &amp;nbsp; &lt;/span&gt;&lt;span style=&quot;color: #9cdcfe;&quot;&gt;email&lt;/span&gt;&lt;span style=&quot;color: #d4d4d4;&quot;&gt;: &lt;/span&gt;&lt;span style=&quot;color: #4ec9b0;&quot;&gt;string&lt;/span&gt;&lt;span style=&quot;color: #d4d4d4;&quot;&gt;;&lt;/span&gt;&lt;/div&gt;&lt;div&gt;&lt;span style=&quot;color: #d4d4d4;&quot;&gt;&amp;nbsp; };&lt;/span&gt;&lt;/div&gt;&lt;br&gt;&lt;div&gt;&lt;span style=&quot;color: #d4d4d4;&quot;&gt;&amp;nbsp; &lt;/span&gt;&lt;span style=&quot;color: #569cd6;&quot;&gt;type&lt;/span&gt;&lt;span style=&quot;color: #d4d4d4;&quot;&gt; &lt;/span&gt;&lt;span style=&quot;color: #4ec9b0;&quot;&gt;TRoom&lt;/span&gt;&lt;span style=&quot;color: #d4d4d4;&quot;&gt; = {&lt;/span&gt;&lt;/div&gt;&lt;div&gt;&lt;span style=&quot;color: #d4d4d4;&quot;&gt;&amp;nbsp; &amp;nbsp; &lt;/span&gt;&lt;span style=&quot;color: #9cdcfe;&quot;&gt;id&lt;/span&gt;&lt;span style=&quot;color: #d4d4d4;&quot;&gt;: &lt;/span&gt;&lt;span style=&quot;color: #4ec9b0;&quot;&gt;string&lt;/span&gt;&lt;span style=&quot;color: #d4d4d4;&quot;&gt;;&lt;/span&gt;&lt;/div&gt;&lt;div&gt;&lt;span style=&quot;color: #d4d4d4;&quot;&gt;&amp;nbsp; &amp;nbsp; &lt;/span&gt;&lt;span style=&quot;color: #9cdcfe;&quot;&gt;content&lt;/span&gt;&lt;span style=&quot;color: #d4d4d4;&quot;&gt;: &lt;/span&gt;&lt;span style=&quot;color: #4ec9b0;&quot;&gt;string&lt;/span&gt;&lt;span style=&quot;color: #d4d4d4;&quot;&gt;;&lt;/span&gt;&lt;/div&gt;&lt;div&gt;&lt;span style=&quot;color: #d4d4d4;&quot;&gt;&amp;nbsp; &amp;nbsp; &lt;/span&gt;&lt;span style=&quot;color: #9cdcfe;&quot;&gt;seen&lt;/span&gt;&lt;span style=&quot;color: #d4d4d4;&quot;&gt;: &lt;/span&gt;&lt;span style=&quot;color: #4ec9b0;&quot;&gt;boolean&lt;/span&gt;&lt;span style=&quot;color: #d4d4d4;&quot;&gt;;&lt;/span&gt;&lt;/div&gt;&lt;div&gt;&lt;span style=&quot;color: #d4d4d4;&quot;&gt;&amp;nbsp; &amp;nbsp; &lt;/span&gt;&lt;span style=&quot;color: #9cdcfe;&quot;&gt;createdAt&lt;/span&gt;&lt;span style=&quot;color: #d4d4d4;&quot;&gt;: &lt;/span&gt;&lt;span style=&quot;color: #4ec9b0;&quot;&gt;string&lt;/span&gt;&lt;span style=&quot;color: #d4d4d4;&quot;&gt;;&lt;/span&gt;&lt;/div&gt;&lt;div&gt;&lt;span style=&quot;color: #d4d4d4;&quot;&gt;&amp;nbsp; };&lt;/span&gt;&lt;/div&gt;&lt;br&gt;&lt;div&gt;&lt;span style=&quot;color: #d4d4d4;&quot;&gt;&amp;nbsp; &lt;/span&gt;&lt;span style=&quot;color: #569cd6;&quot;&gt;type&lt;/span&gt;&lt;span style=&quot;color: #d4d4d4;&quot;&gt; &lt;/span&gt;&lt;span style=&quot;color: #4ec9b0;&quot;&gt;TMemberState&lt;/span&gt;&lt;span style=&quot;color: #d4d4d4;&quot;&gt; = {&lt;/span&gt;&lt;/div&gt;&lt;div&gt;&lt;span style=&quot;color: #d4d4d4;&quot;&gt;&amp;nbsp; &amp;nbsp; &lt;/span&gt;&lt;span style=&quot;color: #9cdcfe;&quot;&gt;members&lt;/span&gt;&lt;span style=&quot;color: #d4d4d4;&quot;&gt;: &lt;/span&gt;&lt;span style=&quot;color: #4ec9b0;&quot;&gt;TMember&lt;/span&gt;&lt;span style=&quot;color: #d4d4d4;&quot;&gt;[];&lt;/span&gt;&lt;/div&gt;&lt;div&gt;&lt;span style=&quot;color: #d4d4d4;&quot;&gt;&amp;nbsp; &amp;nbsp; &lt;/span&gt;&lt;span style=&quot;color: #9cdcfe;&quot;&gt;room&lt;/span&gt;&lt;span style=&quot;color: #d4d4d4;&quot;&gt;: &lt;/span&gt;&lt;span style=&quot;color: #4ec9b0;&quot;&gt;TRoom&lt;/span&gt;&lt;span style=&quot;color: #d4d4d4;&quot;&gt;[];&lt;/span&gt;&lt;/div&gt;&lt;div&gt;&lt;span style=&quot;color: #d4d4d4;&quot;&gt;&amp;nbsp; &amp;nbsp; &lt;/span&gt;&lt;span style=&quot;color: #9cdcfe;&quot;&gt;selectedRoomId&lt;/span&gt;&lt;span style=&quot;color: #d4d4d4;&quot;&gt;: &lt;/span&gt;&lt;span style=&quot;color: #4ec9b0;&quot;&gt;string&lt;/span&gt;&lt;span style=&quot;color: #d4d4d4;&quot;&gt; | &lt;/span&gt;&lt;span style=&quot;color: #4ec9b0;&quot;&gt;null&lt;/span&gt;&lt;span style=&quot;color: #d4d4d4;&quot;&gt;;&lt;/span&gt;&lt;/div&gt;&lt;div&gt;&lt;span style=&quot;color: #d4d4d4;&quot;&gt;&amp;nbsp; };&lt;/span&gt;&lt;/div&gt;&lt;/div&gt;" style="text;whiteSpace=wrap;html=1;fontSize=23;" parent="1" vertex="1">
                    <mxGeometry x="80" y="430" width="300" height="360" as="geometry"/>
                </mxCell>
            </root>
        </mxGraphModel>
    </diagram>
</mxfile>